<?xml version="1.0" encoding="UTF-8" standalone="no"?>
<svg xmlns:dc="http://purl.org/dc/elements/1.1/" xmlns:cc="http://creativecommons.org/ns#" xmlns:rdf="http://www.w3.org/1999/02/22-rdf-syntax-ns#" xmlns:svg="http://www.w3.org/2000/svg" xmlns="http://www.w3.org/2000/svg" viewBox="0 0 816 109.96" height="109.96" width="816" xml:space="preserve" id="svg2" version="1.1">
  <metadata id="metadata8"></metadata>
  <defs id="defs6"></defs>
  <g transform="matrix(1.3333333,0,0,-1.3333333,0,109.96)" id="g10">
    <g transform="scale(0.1)" id="g12">
      <path id="path14" style="fill:#ffffff;fill-opacity:1;fill-rule:nonzero;stroke:none" d="m 2207.69,576.27 c -0.69,-9.352 -3.26,-30.305 -3.45,-34.032 l -168.47,0.032 0.45,5.949 c 1.88,24.648 -5.95,33.148 -31.35,33.148 h -93.13 c -26.24,0 -36.28,-9.347 -38.12,-33.148 l -1.11,-14.449 c -1.71,-22.102 3.96,-25.5 51.72,-32.301 l 134.07,-19.551 c 104.77,-15.301 140.91,-53.551 134.38,-141.102 l -6.72,-90.097 c -7.28,-97.754 -63.85,-149.602 -163.3,-149.602 h -204 c -99.45,0 -148.07,51.848 -140.37,149.602 0.8,10.199 3.07,31.633 3.6,34.062 l 168.82,-0.062 -0.46,-5.953 c -1.91,-24.649 5.92,-33.149 31.39,-33.149 h 100.19 c 25.46,0 34.6,8.5 36.47,33.149 l 1.29,17 c 1.62,21.25 -6.55,25.5 -50.99,32.3 l -134.24,19.551 c -103.98,15.301 -141.69,53.551 -134.93,139.403 l 7.03,89.25 c 7.69,97.75 64.2,149.601 163.14,149.601 h 197.88 c 98.94,0 147.5,-51.851 140.21,-149.601 z M 52.8984,797.383 0,27.3203 h 2258.22 l 52.9,770.0627 H 52.8984"></path>
      <path id="path16" style="fill:#ffffff;fill-opacity:1;fill-rule:nonzero;stroke:none" d="m 2847.91,250.715 c -7.23,-97.75 -63.76,-149.598 -163.21,-149.598 h -192.95 c -99.45,0 -148.11,51.848 -140.47,149.598 l 36.43,466.652 h 169.13 l -33.62,-438.601 c -1.89,-24.649 5.94,-33.149 31.41,-33.149 h 89.15 c 25.47,0 34.6,8.5 36.45,33.149 l 33.05,438.601 h 169.13 l -34.5,-466.652"></path>
      <path id="path18" style="fill:#ffffff;fill-opacity:1;fill-rule:nonzero;stroke:none" d="m 3266.85,539.719 c 1.85,24.648 -5.98,33.148 -31.38,33.148 h -114.3 l -8.7,-113.898 h 114.41 c 25.42,0 34.54,8.5 36.39,33.148 z m 171.44,28.051 -7.64,-103.704 c -7.2,-97.75 -63.63,-149.597 -162.91,-149.597 h -166.31 l -15.64,-204.852 h -170 l 47.29,607.75 h 334.87 c 98.94,0 147.55,-51.847 140.34,-149.597"></path>
      <path id="path20" style="fill:#ffffff;fill-opacity:1;fill-rule:nonzero;stroke:none" d="m 3654.35,572.867 -5.78,-80.75 h 227.06 l -10.08,-144.5 h -227.34 l -6.7,-93.5 h 288.83 l -10,-144.5 h -459.19 l 44.43,607.75 h 431.28 l -10.04,-144.5 h -262.47"></path>
      <path id="path22" style="fill:#ffffff;fill-opacity:1;fill-rule:nonzero;stroke:none" d="m 4166.41,462.367 h 116.95 c 25.43,0 34.64,8.5 36.78,33.153 l 3.83,44.199 c 2.14,24.648 -5.59,33.148 -30.99,33.148 h -116.84 z m 45.83,-144.5 h -58.55 l -18.33,-208.25 h -170 l 54.37,607.75 h 337.41 c 98.94,0 146.94,-51.847 138.6,-149.597 l -8.55,-100.301 c -5.8,-68 -35.16,-113.903 -86.19,-135.153 l 126.22,-222.699 h -198.05 l -116.93,208.25"></path>
      <path id="path24" style="fill:#ffffff;fill-opacity:1;fill-rule:nonzero;stroke:none" d="m 4605.27,717.367 h 169.12 l -39.62,-607.75 h -170 l 40.5,607.75"></path>
      <path id="path26" style="fill:#ffffff;fill-opacity:1;fill-rule:nonzero;stroke:none" d="m 5149.9,581.367 h -97.37 c -25.4,0 -34.52,-8.5 -36.41,-33.148 l -20.73,-269.453 c -1.9,-24.649 5.94,-33.149 31.41,-33.149 h 97.63 c 25.47,0 34.6,8.5 36.46,33.149 l 20.37,269.453 c 1.86,24.648 -5.96,33.148 -31.36,33.148 z m 202.81,-5.097 -24.14,-325.555 c -7.25,-97.75 -63.8,-149.598 -163.25,-149.598 h -201.45 c -99.45,0 -148.09,51.848 -140.43,149.598 l 25.5,325.555 c 7.65,97.75 64.14,149.597 163.08,149.597 h 200.42 c 98.94,0 147.52,-51.847 140.27,-149.597"></path>
      <path id="path28" style="fill:#ffffff;fill-opacity:1;fill-rule:nonzero;stroke:none" d="m 5590.63,462.367 h 116.96 c 25.42,0 34.63,8.5 36.77,33.153 l 3.83,44.199 c 2.14,24.648 -5.59,33.148 -30.99,33.148 h -116.84 z m 45.83,-144.5 h -58.54 l -18.33,-208.25 h -170 l 54.36,607.75 h 337.41 c 98.94,0 146.95,-51.847 138.61,-149.597 l -8.56,-100.301 c -5.8,-68 -35.16,-113.903 -86.19,-135.153 l 126.22,-222.699 h -198.05 l -116.93,208.25"></path>
      <path id="path30" style="fill:#ffffff;fill-opacity:1;fill-rule:nonzero;stroke:none" d="m 6037.87,707.359 h 17.69 l 12.12,-38.73 21.3,38.73 h 17.3 l -7.54,-71.136 h -15.41 l 4.53,42.289 -17.24,-31.817 h -10.26 l -10.32,31.817 -4.65,-42.289 h -15.42 z m -45.98,-15.41 h -17.32 l 1.78,15.41 h 51.3 l -1.72,-15.41 h -17.52 l -6.3,-55.726 h -16.59 l 6.37,55.726"></path>
    </g>
  </g>
</svg>
